<svg width="316" height="95" viewBox="0 0 316 95" fill="none" xmlns="http://www.w3.org/2000/svg">
<path d="M0 0.000244141V35.2262L51.255 48.9602L0 76.5172V95.0002H276.698L169.567 0.000244141H0Z" fill="#FE0000"/>
<path d="M232.296 0.000244141L168.257 19.5792L131.435 0.000244141H-0.000198364V38.1372L30.6308 95.0002H207.911L315.5 0.000244141H232.296Z" fill="white"/>
<path d="M236.803 35.6863L235.076 38.4493H237.655L240.649 35.6863H236.803ZM240.603 37.4823L236.688 43.9303L232.842 37.4823H228.697L234.892 47.2233V53.6013H238.437V47.1543L244.632 37.4843V37.4823H240.603Z" fill="#164194"/>
<path d="M214.008 37.459H217.554V44.506L224.094 37.459H228.377L221.814 44.298L228.676 53.579H224.416L219.419 46.716L217.554 48.651V53.579H214.008V37.459Z" fill="#164194"/>
<path d="M189.485 70.036L191.719 67.549C192.64 68.562 193.538 69.161 194.666 69.161C196.002 69.161 196.831 68.355 196.831 66.49V56.104H200.469V66.651C200.469 70.289 198.42 72.454 194.759 72.454C192.248 72.454 190.59 71.349 189.485 70.036Z" fill="#E30613"/>
<path d="M184.906 64.2098V64.1638C184.906 61.4008 182.879 59.0978 180.024 59.0978C177.169 59.0978 175.188 61.3548 175.188 64.1178V64.1638C175.188 66.9278 177.215 69.2298 180.07 69.2298C182.925 69.2298 184.906 66.9738 184.906 64.2098ZM171.48 64.2098V64.1638C171.48 59.5818 175.096 55.8278 180.07 55.8278C185.044 55.8278 188.613 59.5358 188.613 64.1178V64.1638C188.613 68.7468 184.998 72.4998 180.024 72.4998C175.05 72.4998 171.48 68.7928 171.48 64.2098Z" fill="#E30613"/>
<path d="M162.664 65.5686H158.565V69.1146H162.779C164.345 69.1146 165.289 68.5626 165.289 67.3646V67.3186C165.289 66.2366 164.483 65.5686 162.664 65.5686ZM164.391 60.8706C164.391 59.8116 163.562 59.2126 162.065 59.2126H158.565V62.6206H161.835C163.401 62.6206 164.391 62.1146 164.391 60.9166V60.8706ZM155.111 56.1046H162.595C165.243 56.1046 167.914 57.2786 167.914 60.2726V60.3186C167.914 62.1376 166.947 63.1506 165.796 63.7956C167.661 64.5096 168.812 65.5916 168.812 67.7566V67.8026C168.812 70.7496 166.418 72.2236 162.779 72.2236H155.111V56.1046Z" fill="#E30613"/>
<path d="M144.475 64.0949C144.475 62.9439 145.419 62.0219 146.57 62.0219C147.699 62.0219 148.643 62.9439 148.643 64.0949C148.643 65.2459 147.699 66.1909 146.57 66.1909C145.419 66.1909 144.475 65.2459 144.475 64.0949ZM141.827 69.0689H150.577V72.2239H138.303V56.1039H150.462V59.2589H141.827V69.0689Z" fill="#E30613"/>
<path d="M120.598 64.2098V64.1638C120.598 59.5818 124.052 55.8278 129.003 55.8278C132.043 55.8278 133.862 56.8408 135.358 58.3148L133.102 60.9168C131.858 59.7888 130.592 59.0978 128.98 59.0978C126.263 59.0978 124.305 61.3548 124.305 64.1178V64.1638C124.305 66.9278 126.217 69.2298 128.98 69.2298C130.822 69.2298 131.95 68.4928 133.217 67.3418L135.474 69.6218C133.816 71.3948 131.974 72.4998 128.865 72.4998C124.121 72.4998 120.598 68.8388 120.598 64.2098Z" fill="#E30613"/>
<path d="M116.845 56.5186V72.2236H113.299V56.1046H114.266L115.371 54.3306H119.217L116.845 56.5186Z" fill="#E30613"/>
<path d="M94.4877 56.1041H98.4027L102.617 67.4571L106.831 56.1041H110.653L104.136 72.3381H101.005L94.4877 56.1041Z" fill="#E30613"/>
<path d="M198.167 51.2299L200.263 48.7199C201.713 49.9169 203.233 50.6769 205.075 50.6769C206.526 50.6769 207.401 50.1019 207.401 49.1569V49.1109C207.401 48.2129 206.849 47.7529 204.154 47.0619C200.907 46.2329 198.812 45.3349 198.812 42.1339V42.0879C198.812 39.1629 201.16 37.2289 204.453 37.2289C206.802 37.2289 208.806 37.9659 210.441 39.2779L208.599 41.9499C207.171 40.9599 205.766 40.3609 204.407 40.3609C203.049 40.3609 202.335 40.9829 202.335 41.7659V41.8109C202.335 42.8709 203.026 43.2159 205.812 43.9299C209.082 44.7819 210.924 45.9559 210.924 48.7659V48.8119C210.924 52.0129 208.483 53.8089 205.006 53.8089C202.565 53.8089 200.101 52.9569 198.167 51.2299Z" fill="#164194"/>
<path d="M184.675 51.3909L186.909 48.9039C187.829 49.9169 188.727 50.5159 189.856 50.5159C191.192 50.5159 192.021 49.7099 192.021 47.8449V37.4589H195.659V48.0059C195.659 51.6439 193.61 53.8089 189.948 53.8089C187.438 53.8089 185.78 52.7039 184.675 51.3909Z" fill="#164194"/>
<path d="M179.633 37.459H183.179V53.579H179.633V37.459Z" fill="#164194"/>
<path d="M170.446 45.5878C172.219 45.5878 173.256 44.5288 173.256 43.1468V43.1008C173.256 41.5118 172.15 40.6598 170.377 40.6598H167.637V45.5878H170.446ZM164.091 37.4588H170.676C174.522 37.4588 176.848 39.7388 176.848 43.0318V43.0778C176.848 46.8088 173.946 48.7428 170.331 48.7428H167.637V53.5788H164.091V37.4588Z" fill="#164194"/>
<path d="M142.724 37.459H146.547L150.784 44.275L155.021 37.459H158.843V53.579H155.32V43.055L150.784 49.94H150.692L146.201 43.124V53.579H142.724V37.459Z" fill="#164194"/>
<path d="M130.776 47.2229L124.581 37.4589H128.726L132.572 43.9299L136.486 37.4589H140.517L134.322 47.1539V53.5789H130.776V47.2229Z" fill="#164194"/>
<path d="M114.98 37.459H118.526V50.355H126.563V53.579H114.98V37.459Z" fill="#164194"/>
<path d="M107.199 45.5648V45.5188C107.199 42.7558 105.172 40.4528 102.317 40.4528C99.4625 40.4528 97.4815 42.7098 97.4815 45.4728V45.5188C97.4815 48.2818 99.5085 50.5848 102.363 50.5848C105.218 50.5848 107.199 48.3278 107.199 45.5648ZM93.7735 45.5648V45.5188C93.7735 40.9368 97.3895 37.1828 102.363 37.1828C107.337 37.1828 110.906 40.8908 110.906 45.4728V45.5188C110.906 50.1018 107.291 53.8548 102.317 53.8548C97.3435 53.8548 93.7735 50.1478 93.7735 45.5648Z" fill="#164194"/>
<path d="M36.118 71.577H86.106V38.038H36.118V71.577Z" fill="white"/>
<path d="M36.118 71.577H86.106V38.038H36.118V71.577Z" fill="white"/>
<path d="M36.065 71.577H86.106V54.744H36.065V71.577Z" fill="#E30613"/>
<path d="M36.1176 71.5771L61.0876 54.7341L36.1176 38.0381V71.5771Z" fill="#164194"/>
<path d="M167.763 30.2336C169.899 30.2336 171.63 28.5026 171.63 26.3666C171.63 24.2306 169.899 22.4996 167.763 22.4996C165.627 22.4996 163.896 24.2306 163.896 26.3666C163.896 28.5026 165.627 30.2336 167.763 30.2336Z" fill="#E30613"/>
<path d="M150.794 30.2336C152.93 30.2336 154.661 28.5026 154.661 26.3666C154.661 24.2306 152.93 22.4996 150.794 22.4996C148.658 22.4996 146.927 24.2306 146.927 26.3666C146.927 28.5026 148.658 30.2336 150.794 30.2336Z" fill="#009B3E"/>
<path d="M133.826 30.2336C135.962 30.2336 137.693 28.5026 137.693 26.3666C137.693 24.2306 135.962 22.4996 133.826 22.4996C131.69 22.4996 129.959 24.2306 129.959 26.3666C129.959 28.5026 131.69 30.2336 133.826 30.2336Z" fill="black"/>
<path d="M116.857 30.2336C118.993 30.2336 120.724 28.5026 120.724 26.3666C120.724 24.2306 118.993 22.4996 116.857 22.4996C114.721 22.4996 112.99 24.2306 112.99 26.3666C112.99 28.5026 114.721 30.2336 116.857 30.2336Z" fill="#FFCC00"/>
<path d="M99.8884 30.2336C102.024 30.2336 103.755 28.5026 103.755 26.3666C103.755 24.2306 102.024 22.4996 99.8884 22.4996C97.7524 22.4996 96.0214 24.2306 96.0214 26.3666C96.0214 28.5026 97.7524 30.2336 99.8884 30.2336Z" fill="#004F9F"/>
<path d="M35.862 37.822H86.33V71.795H35.862V37.822Z" stroke="#C59C58" stroke-width="0.858"/>
</svg>
